HIERARCHY
ROOT reference
{
  OFFSET 0 0 0
  CHANNELS 6 Xposition Yposition Zposition Zrotation Xrotation Yrotation
  JOINT Hips
  {
    OFFSET 387.421 88.6843 214.036
    CHANNELS 3 Zrotation Xrotation Yrotation
    JOINT RightUpLeg
    {
      OFFSET -9.26407 -1.54033 -0.0169218
      CHANNELS 3 Zrotation Xrotation Yrotation
      JOINT RightLeg
      {
        OFFSET 0.0262756 -41.889 0.0389421
        CHANNELS 3 Zrotation Xrotation Yrotation
        JOINT RightFoot
        {
          OFFSET -0.025595 -42.7244 0.117519
          CHANNELS 3 Zrotation Xrotation Yrotation
          End Site
          {
            OFFSET 0 -7.69 17.5
          }
        }
      }
    }
    JOINT LeftUpLeg
    {
      OFFSET 9.28488 -1.63184 0.00456132
      CHANNELS 3 Zrotation Xrotation Yrotation
      JOINT LeftLeg
      {
        OFFSET -0.00133996 -41.8929 0.0117795
        CHANNELS 3 Zrotation Xrotation Yrotation
        JOINT LeftFoot
        {
          OFFSET 0.253805 -40.8902 0.809143
          CHANNELS 3 Zrotation Xrotation Yrotation
          End Site
          {
            OFFSET 0 -7.69 17.5
          }
        }
      }
    }
    JOINT Spine
    {
      OFFSET 0.04218 14.2944 0.0529257
      CHANNELS 3 Zrotation Xrotation Yrotation
      JOINT Spine1
      {
        OFFSET 0.022284 9.72228 0.00997239
        CHANNELS 3 Zrotation Xrotation Yrotation
        JOINT Spine2
        {
          OFFSET 0.0397412 10.1199 -0.0103674
          CHANNELS 3 Zrotation Xrotation Yrotation
          JOINT Spine3
          {
            OFFSET 0.0389473 9.71765 -0.00772733
            CHANNELS 3 Zrotation Xrotation Yrotation
            JOINT Neck
            {
              OFFSET 0.0437972 10.3765 0.0320322
              CHANNELS 3 Zrotation Xrotation Yrotation
              JOINT Head
              {
                OFFSET 0.0431994 9.46781 0.0291763
                CHANNELS 3 Zrotation Xrotation Yrotation
                End Site
                {
                  OFFSET 0 15.95 0
                }
              }
            }
            JOINT RightShoulder
            {
              OFFSET -3.17206 6.93005 0.0018626
              CHANNELS 3 Zrotation Xrotation Yrotation
              JOINT RightArm
              {
                OFFSET -12.781 0.0116363 0.0199633
                CHANNELS 3 Zrotation Xrotation Yrotation
                JOINT RightForeArm
                {
                  OFFSET -26.5135 -0.0113607 0.0486864
                  CHANNELS 3 Zrotation Xrotation Yrotation
                  JOINT RightHand
                  {
                    OFFSET -25.9857 -0.0984063 0.163753
                    CHANNELS 3 Zrotation Xrotation Yrotation
                    JOINT RightHandThumb1
                    {
                      OFFSET -2.48905 0.190105 3.12053
                      CHANNELS 3 Zrotation Xrotation Yrotation
                      JOINT RightHandThumb2
                      {
                        OFFSET -3.68274 0 0
                        CHANNELS 3 Zrotation Xrotation Yrotation
                        JOINT RightHandThumb3
                        {
                          OFFSET -2.55832 0 0
                          CHANNELS 3 Zrotation Xrotation Yrotation
                          End Site
                          {
                            OFFSET -2.194 0 0
                          }
                        }
                      }
                    }
                    JOINT RightInHandIndex
                    {
                      OFFSET -3.22368 0.508421 1.97842
                      CHANNELS 3 Zrotation Xrotation Yrotation
                      JOINT RightHandIndex1
                      {
                        OFFSET -5.21684 -0.091368 0.999158
                        CHANNELS 3 Zrotation Xrotation Yrotation
                        JOINT RightHandIndex2
                        {
                          OFFSET -3.61937 0 0
                          CHANNELS 3 Zrotation Xrotation Yrotation
                          JOINT RightHandIndex3
                          {
                            OFFSET -2.0521 0 0
                            CHANNELS 3 Zrotation Xrotation Yrotation
                            End Site
                            {
                              OFFSET -1.805 0 0
                            }
                          }
                        }
                      }
                    }
                    JOINT RightInHandMiddle
                    {
                      OFFSET -3.38211 0.517263 0.756737
                      CHANNELS 3 Zrotation Xrotation Yrotation
                      JOINT RightHandMiddle1
                      {
                        OFFSET -5.17411 -0.084 0.313895
                        CHANNELS 3 Zrotation Xrotation Yrotation
                        JOINT RightHandMiddle2
                        {
                          OFFSET -3.94947 0 0
                          CHANNELS 3 Zrotation Xrotation Yrotation
                          JOINT RightHandMiddle3
                          {
                            OFFSET -2.47579 0 0
                            CHANNELS 3 Zrotation Xrotation Yrotation
                            End Site
                            {
                              OFFSET -1.975 0 0
                            }
                          }
                        }
                      }
                    }
                    JOINT RightInHandRing
                    {
                      OFFSET -3.36516 0.537895 -0.128947
                      CHANNELS 3 Zrotation Xrotation Yrotation
                      JOINT RightHandRing1
                      {
                        OFFSET -4.63474 -0.022105 -0.478947
                        CHANNELS 3 Zrotation Xrotation Yrotation
                        JOINT RightHandRing2
                        {
                          OFFSET -3.44238 0 0
                          CHANNELS 3 Zrotation Xrotation Yrotation
                          JOINT RightHandRing3
                          {
                            OFFSET -2.3881 0 0
                            CHANNELS 3 Zrotation Xrotation Yrotation
                            End Site
                            {
                              OFFSET -1.857 0 0
                            }
                          }
                        }
                      }
                    }
                    JOINT RightInHandPinky
                    {
                      OFFSET -3.16105 0.469368 -1.20179
                      CHANNELS 3 Zrotation Xrotation Yrotation
                      JOINT RightHandPinky1
                      {
                        OFFSET -4.14105 -0.022105 -1.09053
                        CHANNELS 3 Zrotation Xrotation Yrotation
                        JOINT RightHandPinky2
                        {
                          OFFSET -2.75653 0 0
                          CHANNELS 3 Zrotation Xrotation Yrotation
                          JOINT RightHandPinky3
                          {
                            OFFSET -1.74189 0 0
                            CHANNELS 3 Zrotation Xrotation Yrotation
                            End Site
                            {
                              OFFSET -1.645 0 0
                            }
                          }
                        }
                      }
                    }
                  }
                }
              }
            }
            JOINT LeftShoulder
            {
              OFFSET 3.23848 6.90919 -0.0119143
              CHANNELS 3 Zrotation Xrotation Yrotation
              JOINT LeftArm
              {
                OFFSET 12.8241 -0.0554782 -0.0520121
                CHANNELS 3 Zrotation Xrotation Yrotation
                JOINT LeftForeArm
                {
                  OFFSET 26.4865 -0.0658343 -0.0244543
                  CHANNELS 3 Zrotation Xrotation Yrotation
                  JOINT LeftHand
                  {
                    OFFSET 25.985 -0.0475988 -0.0124738
                    CHANNELS 3 Zrotation Xrotation Yrotation
                    JOINT LeftHandThumb1
                    {
                      OFFSET 2.48905 0.190105 3.12053
                      CHANNELS 3 Zrotation Xrotation Yrotation
                      JOINT LeftHandThumb2
                      {
                        OFFSET 3.68274 0 0
                        CHANNELS 3 Zrotation Xrotation Yrotation
                        JOINT LeftHandThumb3
                        {
                          OFFSET 2.55832 0 0
                          CHANNELS 3 Zrotation Xrotation Yrotation
                          End Site
                          {
                            OFFSET 2.194 0 0
                          }
                        }
                      }
                    }
                    JOINT LeftInHandIndex
                    {
                      OFFSET 3.22368 0.508421 1.97842
                      CHANNELS 3 Zrotation Xrotation Yrotation
                      JOINT LeftHandIndex1
                      {
                        OFFSET 5.21684 -0.091368 0.999158
                        CHANNELS 3 Zrotation Xrotation Yrotation
                        JOINT LeftHandIndex2
                        {
                          OFFSET 3.61937 0 0
                          CHANNELS 3 Zrotation Xrotation Yrotation
                          JOINT LeftHandIndex3
                          {
                            OFFSET 2.0521 0 0
                            CHANNELS 3 Zrotation Xrotation Yrotation
                            End Site
                            {
                              OFFSET 1.805 0 0
                            }
                          }
                        }
                      }
                    }
                    JOINT LeftInHandMiddle
                    {
                      OFFSET 3.38211 0.517263 0.756737
                      CHANNELS 3 Zrotation Xrotation Yrotation
                      JOINT LeftHandMiddle1
                      {
                        OFFSET 5.17411 -0.084 0.313895
                        CHANNELS 3 Zrotation Xrotation Yrotation
                        JOINT LeftHandMiddle2
                        {
                          OFFSET 3.94947 0 0
                          CHANNELS 3 Zrotation Xrotation Yrotation
                          JOINT LeftHandMiddle3
                          {
                            OFFSET 2.47579 0 0
                            CHANNELS 3 Zrotation Xrotation Yrotation
                            End Site
                            {
                              OFFSET 1.975 0 0
                            }
                          }
                        }
                      }
                    }
                    JOINT LeftInHandRing
                    {
                      OFFSET 3.36516 0.537895 -0.128947
                      CHANNELS 3 Zrotation Xrotation Yrotation
                      JOINT LeftHandRing1
                      {
                        OFFSET 4.63474 -0.022105 -0.478947
                        CHANNELS 3 Zrotation Xrotation Yrotation
                        JOINT LeftHandRing2
                        {
                          OFFSET 3.44238 0 0
                          CHANNELS 3 Zrotation Xrotation Yrotation
                          JOINT LeftHandRing3
                          {
                            OFFSET 2.3881 0 0
                            CHANNELS 3 Zrotation Xrotation Yrotation
                            End Site
                            {
                              OFFSET 1.857 0 0
                            }
                          }
                        }
                      }
                    }
                    JOINT LeftInHandPinky
                    {
                      OFFSET 3.16105 0.469368 -1.20179
                      CHANNELS 3 Zrotation Xrotation Yrotation
                      JOINT LeftHandPinky1
                      {
                        OFFSET 4.14105 -0.022105 -1.09053
                        CHANNELS 3 Zrotation Xrotation Yrotation
                        JOINT LeftHandPinky2
                        {
                          OFFSET 2.75653 0 0
                          CHANNELS 3 Zrotation Xrotation Yrotation
                          JOINT LeftHandPinky3
                          {
                            OFFSET 1.74189 0 0
                            CHANNELS 3 Zrotation Xrotation Yrotation
                            End Site
                            {
                              OFFSET 1.645 0 0
                            }
                          }
                        }
                      }
                    }
                  }
                }
              }
            }
          }
        }
      }
    }
  }
}
MOTION
Frames: 2
Frame Time: 0.00833333
1.050000000000000000e+03 0.000000000000000000e+00 0.000000000000000000e+00 0.000000000000000000e+00 0.000000000000000000e+00 0.000000000000000000e+00 2.496878796901240705e+01 9.214988625400522437e+00 -9.530068586548895837e+01 1.461609747893964695e+01 -4.348637846150507613e+01 1.375165675362442741e+01 -4.012844112095619309e+00 1.930820535558382289e+01 -9.943697560585064821e+00 8.701238356089573855e+00 6.000225790524162051e+00 3.626826240450476035e+01 1.963653054125408914e+01 -3.537882332382685746e+01 6.962483271281639574e+00 -7.613615770822212525e+00 3.989604732134870346e+01 1.143453195382275389e+01 -4.836456176906285265e+00 -1.930932043763059625e+01 -7.015511048775254110e+00 -2.287371614398406638e+00 1.345290956704732643e+00 -8.773772466928662084e-01 -4.800596902452446968e-01 3.079952669538859045e-01 -1.602633671268867133e-01 -8.072380137964443314e-01 5.015167835672658114e-01 -4.459036248130949787e-01 -3.142279131625350663e-01 -3.151283229906349792e-01 1.156646061377216039e+00 -2.377998026471508375e-01 -2.655270207278167316e+00 1.102140276342145953e+01 -5.316060690926027732e+00 1.252879225914266925e+00 1.473904731279203162e+01 -1.364350087358859875e-01 -7.118041758456880252e+00 1.174337347275174537e+01 4.394342143577480186e+01 -3.652552189630725366e+01 1.419531132041403865e+01 3.484130121121385315e+01 -7.245202385098684417e+00 9.256464800269937143e+01 1.862300766046812228e+01 -2.159829918033047136e+01 9.223474431312528310e+00 2.818400000000000105e+01 1.072940000000000005e+01 1.915919999999999845e+01 -2.939424504074248775e-15 2.152860512107509304e-15 -1.000000000000000000e+01 -1.395133762712337813e-14 -5.356680696101586644e-15 -1.000000000000000000e+01 1.563604674303160856e-15 -4.306304598829551833e-15 -2.387810716100470736e-15 1.998179999999999978e+01 8.718970000000000331e-01 2.396399999999999864e+00 2.400000000000000000e+01 -1.014536003185830745e-14 3.391167564399803744e-15 2.000000000000000000e+01 -8.705973008452754245e-15 -5.158516646500712131e-14 1.563604674303160856e-15 -4.306304598829551833e-15 -2.387810716100470736e-15 2.000000000000000000e+01 -2.221110965916970476e-15 1.198371908101198782e-14 2.400000000000000000e+01 -1.786639585465834447e-16 1.421434117564654915e-14 2.000000000000000000e+01 -4.501191037519346312e-15 -3.449446881143942032e-14 1.563604674303160856e-15 -4.306304598829551833e-15 -2.387810716100470736e-15 1.997479999999999833e+01 -1.025649999999999951e+00 -2.819380000000000219e+00 2.400000000000000000e+01 -2.703893996473461924e-15 3.651944980984655222e-15 2.000000000000000000e+01 -5.959357934019495834e-15 -2.868450547778877909e-14 1.563604674303160856e-15 -4.306304598829551833e-15 -2.387810716100470736e-15 1.978150000000000119e+01 -3.009479999999999933e+00 -8.305149999999999366e+00 2.400000000000000000e+01 4.337176676128381719e-16 2.505008824519539797e-15 2.000000000000000000e+01 -1.302346970206161209e-15 -1.088875847297231364e-14 7.127058937901599833e+00 -1.852130908297096568e+01 -4.172373871916131804e+01 -2.726997795292166415e+01 2.498214974418086953e+01 -9.804411645795252639e+01 2.393405425246910312e+01 -1.712844235788835690e+01 -2.762761785366822664e+01 -3.034272030974804935e+01 -1.380580949885828801e+01 -8.454244647667534807e+00 -2.818400000000000105e+01 1.072940000000000005e+01 -1.915919999999999845e+01 9.428077969822606803e-15 6.906440212155183995e-15 1.000000000000000000e+01 1.090840668463898875e-14 -3.120030523980965891e-15 1.000000000000000000e+01 3.790594643847952743e-16 3.842283250140062249e-15 -9.567829987825935544e-17 -1.998179999999999978e+01 8.718970000000000331e-01 -2.396399999999999864e+00 -2.400000000000000000e+01 -4.036125622033271207e-15 -3.510123201854264639e-15 -2.000000000000000000e+01 -1.218612752853875501e-15 1.414831072887040286e-14 3.790594643847952743e-16 3.842283250140062249e-15 -9.567829987825935544e-17 -2.000000000000000000e+01 4.798832722024301712e-15 -2.398155632864146773e-16 -2.400000000000000000e+01 5.622106380078574511e-15 3.206737525478071965e-15 -2.000000000000000000e+01 -8.921943231362524292e-16 1.542518321062748968e-14 3.790594643847952743e-16 3.842283250140062249e-15 -9.567829987825935544e-17 -1.997479999999999833e+01 -1.025649999999999951e+00 2.819380000000000219e+00 -2.400000000000000000e+01 4.814940528908114748e-16 3.460734529629170396e-15 -2.000000000000000000e+01 -1.359757136787593082e-15 1.371708507312979451e-14 3.790594643847952743e-16 3.842283250140062249e-15 -9.567829987825935544e-17 -1.978150000000000119e+01 -3.009479999999999933e+00 8.305149999999999366e+00 -2.400000000000000000e+01 9.065142524998269986e-15 1.441720768506281882e-14 -2.000000000000000000e+01 5.063389091269803160e-16 -7.515292460067858840e-15
1.050000000000000000e+03 0.000000000000000000e+00 0.000000000000000000e+00 0.000000000000000000e+00 0.000000000000000000e+00 0.000000000000000000e+00 2.484614432487747848e+01 9.293994319311863705e+00 -9.478689834778383272e+01 1.450173066312040149e+01 -4.327221565822883065e+01 1.361520979889310823e+01 -3.978679073315492865e+00 1.927980097966218409e+01 -1.000874073204386150e+01 8.716629845821753264e+00 6.058464113974563858e+00 3.611935826289112583e+01 1.941079360003379151e+01 -3.535597502341536824e+01 6.715871196068889049e+00 -7.455059195688756191e+00 3.982982379195981082e+01 1.123972834256633213e+01 -4.846906321749083979e+00 -1.923407733969392197e+01 -7.216178624060191282e+00 -2.225485636618286023e+00 1.318136696333365165e+00 -7.762490341790346804e-01 -4.670381854805627508e-01 2.997399738226602661e-01 -1.328726699675302214e-01 -7.842074103588033696e-01 4.874624348913569882e-01 -4.098399848905200926e-01 -3.084131793821011103e-01 -3.159760898279024843e-01 1.141112079870966856e+00 -2.244350005061839237e-01 -2.668511851269779189e+00 1.078586886368778153e+01 -5.210376848438251329e+00 1.285241997594711361e+00 1.455066952415801751e+01 -1.663616153843183731e-01 -7.189874673574004227e+00 1.179254696856187579e+01 4.393945946517235512e+01 -3.630251634276599759e+01 1.443895331468482723e+01 3.445447444712479523e+01 -7.172939142059307827e+00 9.243235832962918153e+01 1.856840758367270183e+01 -2.157000582028782532e+01 9.409862784484673170e+00 2.818400000000000105e+01 1.072940000000000005e+01 1.915919999999999845e+01 -2.919236736351157288e-15 2.147654058995914726e-15 -1.000000000000000000e+01 -1.393859036003542764e-14 -5.336647559558364995e-15 -1.000000000000000000e+01 1.558696420968787968e-15 -4.304478617168340725e-15 -2.399817009704730310e-15 1.998179999999999978e+01 8.718970000000000331e-01 2.396399999999999864e+00 2.400000000000000000e+01 -1.009896511536351676e-14 3.607138755759474165e-15 2.000000000000000000e+01 -8.713176276232517851e-15 -5.155217068486042995e-14 1.558696420968787968e-15 -4.304478617168340725e-15 -2.399817009704730310e-15 2.000000000000000000e+01 -2.223894330620799160e-15 1.198149567035378235e-14 2.400000000000000000e+01 -1.339409395680235071e-16 1.432049719223156089e-14 2.000000000000000000e+01 -4.513017662447151194e-15 -3.448044144762783490e-14 1.558696420968787968e-15 -4.304478617168340725e-15 -2.399817009704730310e-15 1.997479999999999833e+01 -1.025649999999999951e+00 -2.819380000000000219e+00 2.400000000000000000e+01 -2.615212551004472845e-15 4.088824195699835665e-15 2.000000000000000000e+01 -5.943466275713696068e-15 -2.867504161066232006e-14 1.558696420968787968e-15 -4.304478617168340725e-15 -2.399817009704730310e-15 1.978150000000000119e+01 -3.009479999999999933e+00 -8.305149999999999366e+00 2.400000000000000000e+01 4.911907918832064763e-16 2.743912805730513142e-15 2.000000000000000000e+01 -1.295265130845028918e-15 -1.089505595790416058e-14 7.084597452405271056e+00 -1.849455635265154996e+01 -4.162582241926594406e+01 -2.744406496017833064e+01 2.479503216417898415e+01 -9.783694107801714779e+01 2.384486914951720138e+01 -1.718377160256637026e+01 -2.799791654531631480e+01 -3.037895016058361364e+01 -1.368539400998531441e+01 -8.546081974045215190e+00 -2.818400000000000105e+01 1.072940000000000005e+01 -1.915919999999999845e+01 9.412539073674181072e-15 6.909466008052478111e-15 1.000000000000000000e+01 1.088184848445136399e-14 -3.118185628655768285e-15 1.000000000000000000e+01 3.744640678902365052e-16 3.830522751698917734e-15 -9.529270824407216565e-17 -1.998179999999999978e+01 8.718970000000000331e-01 -2.396399999999999864e+00 -2.400000000000000000e+01 -4.004138681707394628e-15 -3.579261121081868597e-15 -2.000000000000000000e+01 -1.203129803728413141e-15 1.409922127909521375e-14 3.744640678902365052e-16 3.830522751698917734e-15 -9.529270824407216565e-17 -2.000000000000000000e+01 4.812265217025554668e-15 -2.771204222849580727e-16 -2.400000000000000000e+01 5.636597440445789037e-15 3.129988192053564814e-15 -2.000000000000000000e+01 -8.799504262472294739e-16 1.535764234627856799e-14 3.744640678902365052e-16 3.830522751698917734e-15 -9.529270824407216565e-17 -1.997479999999999833e+01 -1.025649999999999951e+00 2.819380000000000219e+00 -2.400000000000000000e+01 4.812770423935453339e-16 3.389034850645334451e-15 -2.000000000000000000e+01 -1.319860935391892631e-15 1.367489614493439331e-14 3.744640678902365052e-16 3.830522751698917734e-15 -9.529270824407216565e-17 -1.978150000000000119e+01 -3.009479999999999933e+00 8.305149999999999366e+00 -2.400000000000000000e+01 9.062904532151569780e-15 1.438947573783322831e-14 -2.000000000000000000e+01 5.261758607066676719e-16 -7.558687984563908355e-15
